# AST/ASF file generated using VICON BodyLanguage
# -----------------------------------------------
:version 1.10
:name VICON
:units
  mass 1.0
  length 0.45
  angle deg
:documentation
   .ast/.asf automatically generated from VICON data using
   VICON BodyBuilder and BodyLanguage model FoxedUp or BRILLIANT.MOD
:root
   order TX TY TZ RX RY RZ
   axis XYZ
   position 0 0 0  
   orientation 0 0 0 
:bonedata
  begin
     id 1 
     name lhipjoint
     direction 0.623415 -0.642378 0.445763 
     length 2.49859 
     axis 0 0 0  XYZ
  end
  begin
     id 2 
     name lfemur
     direction 0.34202 -0.939693 0  
     length 6.69689  
     axis 0 0 20  XYZ
    dof rx ry rz
    limits (-160.0 20.0)
           (-70.0 70.0)
           (-60.0 70.0)
  end
  begin
     id 3 
     name ltibia
     direction 0.34202 -0.939693 0   
     length 7.37574   
     axis 0 0 20   XYZ
    dof rx
    limits (-10.0 170.0)
  end
  begin
     id 4 
     name lfoot
     direction 0.084323 -0.231675 0.969132   
     length 2.09111   
     axis -90 7.62852e-016 20   XYZ
    dof rx rz
    limits (-45.0 90.0)
           (-70.0 20.0)
  end
  begin
     id 5 
     name ltoes
     direction 1.5357e-011 -4.21957e-011 1   
     length 1.04989   
     axis -90 7.62852e-016 20   XYZ
    dof rx
    limits (-90.0 20.0)
  end
  begin
     id 6 
     name rhipjoint
     direction -0.605402 -0.653903 0.45376   
     length 2.45455  
     axis 0 0 0  XYZ 
  end
  begin
     id 7 
     name rfemur
     direction -0.34202 -0.939693 0   
     length 6.64523   
     axis 0 0 -20   XYZ
    dof rx ry rz
    limits (-160.0 20.0)
           (-70.0 70.0)
           (-70.0 60.0)
  end
  begin
     id 8 
     name rtibia
     direction -0.34202 -0.939693 0   
     length 7.3339   
     axis 0 0 -20   XYZ
    dof rx
    limits (-10.0 170.0)
 end
 begin
     id 9 
     name rfoot
     direction -0.120854 -0.332043 0.93549   
     length 2.23135  
     axis -90 -7.62852e-016 -20   XYZ
    dof rx rz
    limits (-45.0 90.0)
           (-20.0 70.0)
  end
  begin
     id 10 
     name rtoes
     direction -1.53563e-011 -4.21914e-011 1   
     length 1.10614   
     axis -90 -7.62852e-016 -20   XYZ
    dof rx
    limits (-90.0 20.0)
  end
  begin
     id 11 
     name lowerback
     direction 0.0319682 0.998615 -0.0417941   
     length 2.02718   
     axis 0 0 0   XYZ
    dof rx ry rz
    limits (-20.0 45.0)
           (-30.0 30.0)
           (-30.0 30.0)
  end
  begin
     id 12 
     name upperback
     direction 7.63181e-005 0.995808 0.0914691   
     length 1.97539   
     axis 0 0 0   XYZ
    dof rx ry rz
    limits (-20.0 45.0)
           (-30.0 30.0)
           (-30.0 30.0)
  end
  begin
     id 13 
     name thorax
     direction -0.016423 0.993627 0.111514   
     length 2.00349   
     axis 0 0 0   XYZ
    dof rx ry rz
    limits (-20.0 45.0)
           (-30.0 30.0)
           (-30.0 30.0)
  end
  begin
     id 14 
     name lowerneck
     direction -0.174763 0.981668 -0.0760716   
     length 1.71436   
     axis 0 0 0   XYZ
    dof rx ry rz
    limits (-20.0 45.0)
           (-30.0 30.0)
           (-30.0 30.0)
  end
  begin
     id 15 
     name upperneck
     direction 0.345458 0.934587 -0.0848868   
     length 1.72805   
     axis 0 0 0   XYZ
    dof rx ry rz
    limits (-20.0 45.0)
           (-30.0 30.0)
           (-30.0 30.0)
  end
  begin
     id 16
     name head
     direction 0.13001 0.989848 -0.0574291  
     length 1.767  
     axis 0 0 0   XYZ
    dof rx ry rz
    limits (-20.0 45.0)
           (-30.0 30.0)
           (-30.0 30.0)
  end
  begin
     id 17 
     name lclavicle
     direction 0.952951 0.290122 0.0878234  
     length 3.54654  
     axis 0 0 0   XYZ
    dof ry rz
    limits (-20.0 10.0)
           (0.0 20.0)
  end
  begin
     id 18 
     name lhumerus
     direction 1 -4.48957e-011 -4.56525e-028   
     length 5.19807   
     axis 180 -30 -90   XYZ
    dof rx ry rz
    limits (-60.0 90.0)
           (-90.0 90.0)
           (-90.0 90.0)
  end
  begin
     id 19
     name lradius
     direction 1 -4.48979e-011 -2.0317e-027   
     length 3.0937   
     axis 180 -30 -90   XYZ
    dof rx
    limits (-10.0 170.0)
  end
  begin
     id 20
     name lwrist
     direction 1 -4.48953e-011 -3.05809e-027   
     length 1.54685   
     axis 8.48514e-016 90 90   XYZ
    dof ry
    limits (-180.0 0.0)
 end
  begin
     id 21 
     name lhand
     direction 1 -4.48952e-011 -6.11639e-027   
     length 0.672632   
     axis 3.9013e-015 90 90   XYZ
    dof rx rz
    limits (-90.0 90.0)
           (-45.0 45.0)
  end
  begin
     id 22 
     name lfingers
     direction 1 -4.48925e-011 -1.22426e-026   
     length 0.542293   
     axis 7.80276e-015 90 90   XYZ
    dof rx
    limits (0.0 90.0)
  end
  begin
     id 23
     name lthumb
     direction 0.707107 -6.3486e-011 0.707107   
     length 0.778628   
     axis -90 45 5.37419e-014   XYZ
    dof rx rz
    limits (-45.0 45.0)
           (-45.0 45.0)
  end
  begin
     id 24 
     name rclavicle
     direction -0.960732 0.273675 -0.0457849   
     length 3.52079  
     axis 0 0 0   XYZ 
    dof ry rz
    limits (-10.0 20.0)
           (-20.0 0.0)
  end
  begin
     id 25 
     name rhumerus
     direction -1 -4.48976e-011 -1.63613e-027  
     length 5.45222   
     axis 180 30 90   XYZ
    dof rx ry rz
    limits (-90.0 60.0)
           (-90.0 90.0)
           (-90.0 90.0)
  end
  begin
     id 26 
     name rradius
     direction -1 -4.48957e-011 -7.00033e-028   
     length 3.01284   
     axis 180 30 90   XYZ
    dof rx
    limits (-10.0 170.0)
  end
  begin
     id 27 
     name rwrist
     direction -1 -4.48983e-011 -3.05543e-027   
     length 1.50642   
     axis 8.48514e-016 -90 -90   XYZ
    dof ry
    limits (-180.0 0.0)
  end
  begin
     id 28
     name rhand
     direction -1 -4.48984e-011 -6.11072e-027   
     length 0.622296   
     axis 3.9013e-015 -90 -90   XYZ
    dof rx rz
    limits (-90.0 90.0)
           (-45.0 45.0)
  end
  begin
     id 29
     name rfingers
     direction -1 -4.48865e-011 -1.22637e-026   
     length 0.501711   
     axis 7.80276e-015 -90 -90   XYZ
    dof rx
    limits (0.0 90.0)
  end
  begin
     id 30
     name rthumb
     direction -0.707107 -6.34932e-011 0.707107   
     length 0.72036   
     axis -90 -45 -5.37419e-014   XYZ
    dof rx rz
    limits (-45.0 45.0)
           (-45.0 45.0)
  end
:hierarchy
  begin
    root lhipjoint rhipjoint lowerback
    lhipjoint lfemur
    lfemur ltibia
    ltibia lfoot
    lfoot ltoes
    rhipjoint rfemur
    rfemur rtibia
    rtibia rfoot
    rfoot rtoes
    lowerback upperback
    upperback thorax
    thorax lowerneck lclavicle rclavicle
    lowerneck upperneck
    upperneck head
    lclavicle lhumerus
    lhumerus lradius
    lradius lwrist
    lwrist lhand lthumb
    lhand lfingers
    rclavicle rhumerus
    rhumerus rradius
    rradius rwrist
    rwrist rhand rthumb
    rhand rfingers
  end

#!OML:ASF H:\Not Pregnant\Project 1\Capture day 1\Session 1\non-pregnant.ASF
:FULLY-SPECIFIED
:DEGREES
206
root -3.62915 15.6904 30.2724 171.322 -78.8957 -159.805
lowerback -2.31267 4.19815 4.55528
upperback -7.0348 5.40961 -1.56277
thorax -5.45046 2.32379 -4.26466
lowerneck 22.1167 -10.0542 -32.0137
upperneck -1.70143 -23.6796 39.715
head 5.45357 -14.6243 19.4866
rclavicle 2.82523e-014 -3.57812e-015
rhumerus -31.2467 -2.49621 -78.8784
rradius 27.6725
rwrist 26.0333
rhand -9.28836 6.18637
rfingers 7.12502
rthumb 16.6688 -23.1179
lclavicle 2.82523e-014 -3.57812e-015
lhumerus -46.5765 6.34979 78.8365
lradius 34.0989
lwrist 40.0056
lhand -9.71075 -8.7716
lfingers 7.12502
lthumb 16.2622 20.5664
rfemur -28.7527 4.2074 21.5398
rtibia 38.3785
rfoot -23.2854 8.47419
rtoes -16.9954
lfemur -32.9821 6.73914 -22.8246
ltibia 48.2967
lfoot -23.3648 -3.69628
ltoes -30.5476
207
root -3.63427 15.6884 30.2445 171.151 -78.6131 -159.644
lowerback -2.48251 4.14208 4.52557
upperback -7.04992 5.32631 -1.45018
thorax -5.39122 2.28691 -4.11772
lowerneck 21.914 -9.97748 -31.9561
upperneck -1.4518 -23.5527 39.6066
head 5.47355 -14.5358 19.4396
rclavicle 4.33351e-014 -8.34896e-015
rhumerus -31.2239 -2.72109 -78.7258
rradius 27.701
rwrist 26.1092
rhand -9.34253 6.13428
rfingers 7.12502
rthumb 16.6167 -23.1744
lclavicle 4.33351e-014 -8.34896e-015
lhumerus -46.5689 5.7962 79.125
lradius 33.7592
lwrist 38.9014
lhand -10.2025 -9.53665
lfingers 7.12502
lthumb 15.7886 19.8395
rfemur -28.7013 4.20705 21.7924
rtibia 38.3507
rfoot -23.3565 8.79503
rtoes -16.6189
lfemur -32.6378 6.63114 -23.128
ltibia 47.4512
lfoot -22.881 -3.11059
ltoes -27.7811
208
root -3.63978 15.6882 30.2199 170.87 -78.3738 -159.342
lowerback -2.69325 4.06457 4.50564
upperback -7.06906 5.21214 -1.32029
thorax -5.31649 2.2346 -3.95559
lowerneck 21.7025 -9.90154 -31.9108
upperneck -1.19856 -23.4265 39.4886
head 5.49669 -14.4456 19.388
rclavicle 1.29707e-014 1.59028e-015
rhumerus -31.204 -2.8981 -78.562
rradius 27.7464
rwrist 26.1134
rhand -9.39862 6.10049
rfingers 7.12502
rthumb 16.5627 -23.2127
lclavicle 1.29707e-014 1.59028e-015
lhumerus -46.5712 5.24236 79.4745
lradius 33.4407
lwrist 37.8883
lhand -10.8346 -10.3441
lfingers 7.12502
lthumb 15.1798 19.0791
rfemur -28.6597 4.15606 22.0511
rtibia 38.2819
rfoot -23.4101 9.12661
rtoes -16.2526
lfemur -32.2906 6.32429 -23.3076
ltibia 46.6352
lfoot -22.278 -2.08034
ltoes -24.7545
209
root -3.64546 15.6889 30.1965 170.508 -78.1598 -158.933
lowerback -2.93551 3.98306 4.48167
upperback -7.09349 5.0904 -1.18464
thorax -5.23057 2.17874 -3.78382
lowerneck 21.4998 -9.84677 -31.8261
upperneck -0.963136 -23.312 39.3469
head 5.50778 -14.3585 19.3107
rclavicle -3.01159e-014 8.34896e-015
rhumerus -31.2046 -3.14195 -78.3702
rradius 27.8086
rwrist 26.1175
rhand -9.44084 6.09396
rfingers 7.12502
rthumb 16.522 -23.2226
lclavicle -3.01159e-014 8.34896e-015
lhumerus -46.5803 4.62453 79.9004
lradius 33.146
lwrist 36.9282
lhand -11.6344 -11.1601
lfingers 7.12502
lthumb 14.4093 18.3197
rfemur -28.6338 4.10734 22.3167
rtibia 38.1986
rfoot -23.4449 9.44515
rtoes -15.8889
lfemur -31.9345 5.88107 -23.3663
ltibia 45.8711
lfoot -21.6878 -0.744122
ltoes -21.7621
210
root -3.6509 15.6893 30.1736 170.044 -77.9648 -158.402
lowerback -3.19448 3.89741 4.45363
upperback -7.12427 4.96177 -1.0431
thorax -5.14283 2.11938 -3.60363
lowerneck 21.3122 -9.80882 -31.7049
upperneck -0.749102 -23.2066 39.1879
head 5.50551 -14.2747 19.2139
rclavicle -2.07233e-014 -1.19271e-015
rhumerus -31.2299 -3.39831 -78.17
rradius 27.8947
rwrist 26.0644
rhand -9.47062 6.10073
rfingers 7.12502
rthumb 16.4934 -23.2182
lclavicle -2.07233e-014 -1.19271e-015
lhumerus -46.6015 3.95296 80.3895
lradius 32.9037
lwrist 36.1572
lhand -12.5393 -11.8852
lfingers 7.12502
lthumb 13.5373 17.6548
rfemur -28.6305 4.09456 22.5941
rtibia 38.1284
rfoot -23.4673 9.71382
rtoes -15.5532
lfemur -31.5679 5.35458 -23.3065
ltibia 45.1693
lfoot -21.226 0.704854
ltoes -18.9991
211
root -3.65564 15.6876 30.1506 169.52 -77.7801 -157.795
lowerback -3.4548 3.81225 4.41773
upperback -7.16757 4.83301 -0.902089
thorax -5.0676 2.05927 -3.42103
lowerneck 21.1453 -9.78884 -31.5414
upperneck -0.553176 -23.1149 39.0128
head 5.49131 -14.1973 19.0971
rclavicle -2.05742e-014 -3.97569e-016
rhumerus -31.2975 -3.72494 -77.957
rradius 28.0051
rwrist 26.0078
rhand -9.50249 6.11042
rfingers 7.12502
rthumb 16.4627 -23.2111
lclavicle -2.05742e-014 -3.97569e-016
lhumerus -46.6479 3.21056 80.9454
lradius 32.6848
lwrist 35.3931
lhand -13.5711 -12.5485
lfingers 7.12502
lthumb 12.5426 17.0551
rfemur -28.6638 4.12353 22.8774
rtibia 38.0955
rfoot -23.4832 9.92959
rtoes -15.2449
lfemur -31.1949 4.80346 -23.1491
ltibia 44.5262
lfoot -21.0236 2.07439
ltoes -16.7218
